<svg xmlns="http://www.w3.org/2000/svg" xmlns:xlink="http://www.w3.org/1999/xlink" version="1.0" x="0" y="0" width="2400" height="736.6031006146558" viewBox="60.44296356201172 91.37497802734374 219.11407287597658 67.2500439453125" preserveAspectRatio="xMidYMid meet" color-interpolation-filters="sRGB"><g><defs><linearGradient id="92" x1="0%" y1="0%" x2="100%" y2="0%"><stop offset="0%" stop-color="#fa71cd"></stop> <stop offset="100%" stop-color="#9b59b6"></stop></linearGradient><linearGradient id="93" x1="0%" y1="0%" x2="100%" y2="0%"><stop offset="0%" stop-color="#f9d423"></stop> <stop offset="100%" stop-color="#f83600"></stop></linearGradient><linearGradient id="94" x1="0%" y1="0%" x2="100%" y2="0%"><stop offset="0%" stop-color="#0064d2"></stop> <stop offset="100%" stop-color="#1cb0f6"></stop></linearGradient><linearGradient id="95" x1="0%" y1="0%" x2="100%" y2="0%"><stop offset="0%" stop-color="#f00978"></stop> <stop offset="100%" stop-color="#3f51b1"></stop></linearGradient><linearGradient id="96" x1="0%" y1="0%" x2="100%" y2="0%"><stop offset="0%" stop-color="#7873f5"></stop> <stop offset="100%" stop-color="#ec77ab"></stop></linearGradient><linearGradient id="97" x1="0%" y1="0%" x2="100%" y2="0%"><stop offset="0%" stop-color="#f9d423"></stop> <stop offset="100%" stop-color="#e14fad"></stop></linearGradient><linearGradient id="98" x1="0%" y1="0%" x2="100%" y2="0%"><stop offset="0%" stop-color="#009efd"></stop> <stop offset="100%" stop-color="#2af598"></stop></linearGradient><linearGradient id="99" x1="0%" y1="0%" x2="100%" y2="0%"><stop offset="0%" stop-color="#ffcc00"></stop> <stop offset="100%" stop-color="#00b140"></stop></linearGradient><linearGradient id="100" x1="0%" y1="0%" x2="100%" y2="0%"><stop offset="0%" stop-color="#d51007"></stop> <stop offset="100%" stop-color="#ff8177"></stop></linearGradient><linearGradient id="102" x1="0%" y1="0%" x2="100%" y2="0%"><stop offset="0%" stop-color="#a2b6df"></stop> <stop offset="100%" stop-color="#0c3483"></stop></linearGradient><linearGradient id="103" x1="0%" y1="0%" x2="100%" y2="0%"><stop offset="0%" stop-color="#7ac5d8"></stop> <stop offset="100%" stop-color="#eea2a2"></stop></linearGradient><linearGradient id="104" x1="0%" y1="0%" x2="100%" y2="0%"><stop offset="0%" stop-color="#00ecbc"></stop> <stop offset="100%" stop-color="#007adf"></stop></linearGradient><linearGradient id="105" x1="0%" y1="0%" x2="100%" y2="0%"><stop offset="0%" stop-color="#b88746"></stop> <stop offset="100%" stop-color="#fdf5a6"></stop></linearGradient></defs><g fill="#000000" class="iconblsvg-g iconsvg" transform="translate(62.59114074707031,93.52315521240234)"><g class="tp-name" transform="translate(0,0)"><g transform="translate(0, 3.323642316071883)"><g transform="scale(1)"><path d="M4.57-16.17L6.56-30.21 5.04-31.97 41.9-31.97 39.68-16.17 4.57-16.17ZM30.44-0.37L10.26-0.37 12.24-14.41 20.14-14.41 18.89-5.64 29.43-5.64 31.41-7.39 30.44-0.37ZM11.23-13.54L7.62-0.37 0.6-0.37 4.2-13.54 11.23-13.54ZM32.2-0.37L32.29-13.54 39.31-13.54 39.22-0.37 32.2-0.37ZM22.22-7.39L22.45-15.29 29.43-15.29 29.2-7.39 22.22-7.39ZM15.06-28.46L14.69-25.82 19.08-25.82 19.45-28.46 15.06-28.46ZM14.23-22.31L13.86-19.68 18.25-19.68 18.62-22.31 14.23-22.31ZM31.41-19.68L31.78-22.31 27.39-22.31 27.02-19.68 31.41-19.68ZM32.61-28.46L28.23-28.46 27.86-25.82 32.24-25.82 32.61-28.46ZM69.39-32.75L69.06-30.67 69.11-30.67 68.79-28.46 73.17-28.46 73.54-31.18 71.97-32.8 80.7-32.8 80.1-28.46 84.54-28.46 83.94-24.07 79.46-24.07 78.99-20.56 82.55-20.56 81.95-16.17 78.35-16.17 77.89-12.8 81.54-12.8 80.89-8.36 77.29-8.36 76.78-4.94 81.3-4.94 80.66-0.42 64.86-0.42 64.77 0.32 57.65 0.32 61.26-25.41 59.5-24.95 60.24-30.21 69.39-32.75ZM45.41-18.06L46.01-22.45 51.97-31.6 50.95-32.75 60.61-32.75 53.91-22.45 59.18-22.45 52.43-11.92 57.7-11.92 57.05-7.44 43.89-7.44 44.53-11.92 48.64-18.06 45.41-18.06ZM56.82-5.77L56.22-1.39 42.92-0.51 43.56-4.9 56.82-5.77ZM68.18-24.07L67.68-20.56 72.07-20.56 72.53-24.07 68.18-24.07ZM65.97-8.36L65.51-4.94 69.85-4.94 70.31-8.36 65.97-8.36ZM67.08-16.17L66.61-12.8 70.96-12.8 71.42-16.17 67.08-16.17Z" transform="translate(-0.6000000238418579, 32.849998474121094)"></path></g></g> <g transform="translate(86.94000244140625, 0)"><g><g class="imagesvg"><g><rect fill="#000000" fill-opacity="0" stroke-width="2" x="0" y="0" width="40.337718260869565" height="39.91304347826087" class="image-rect"></rect> <svg x="0" y="0" width="40.337718260869565" height="39.91304347826087" filtersec="colorsb6489143851" class="image-svg-svg primary" style="overflow: visible;"><svg xmlns="http://www.w3.org/2000/svg" viewBox="7.833465576171875 6.421145915985107 2034.196533203125 2012.7728271484375" preserveAspectRatio="none" display="block"><path fill="#5c7d82" d="M 2027.08 1182.6 C 2024.24 1191.4 2023 1202.62 2021.1 1211.86 C 1942.68 1593.36 1641.04 1899.47 1262.47 1991.05 C 1002.24 2053.62 727.828 2010.93 498.906 1872.26 C 267.987 1733.27 101.691 1508.29 36.5597 1246.76 C -26.9797 986.729 15.8439 712.093 155.535 483.75 C 295.211 254.921 520.946 91.7847 782.048 30.9759 C 850.238 15.3728 919.916 7.19459 989.866 6.58408 C 1148.32 4.09791 1289.04 29.8887 1434.18 95.9904 C 1468.35 111.553 1503.49 128.929 1535.52 148.662 C 1565.37 122.768 1600.41 103.554 1638.29 92.3091 C 1705.67 72.5552 1778.12 80.1804 1839.91 113.529 C 1905.33 149.439 1953.8 209.868 1974.67 281.521 C 1995.36 353.663 1981.9 441.504 1938.89 502.568 C 1932.7 511.365 1925.38 520.713 1920.39 530.153 C 1939.82 567.134 1954.77 596.924 1970.6 636.215 C 2017.48 755.042 2041.71 881.593 2042.03 1009.33 C 2041.91 1053.14 2037.07 1086.49 2034.96 1127.82 C 2033.77 1134.39 2027.26 1177.05 2027.08 1182.6 z M 1095.25 1895.97 C 1123.63 1894.65 1166.03 1887.91 1193.88 1882.44 C 1354.22 1850.74 1503.08 1776.49 1624.85 1667.47 C 1779.36 1528.9 1882.08 1341.27 1911.92 1135.79 C 1915.35 1112.2 1918.96 1089.15 1920.3 1065.33 C 1929.08 910.097 1896.69 739.117 1822.8 601.631 C 1765.87 631.185 1690.94 633.35 1630.46 613.95 C 1562.58 592.175 1504.06 541.696 1471.54 478.407 C 1438.33 414.632 1432.13 340.182 1454.36 271.797 C 1456.6 264.858 1460.6 252.82 1463.48 246.255 C 1434.55 231.028 1405.47 215.418 1375.56 202.22 C 1258.3 150.276 1131.26 124.106 1003.02 125.48 C 767.126 127.787 541.849 223.883 376.919 392.552 C 213.048 561.602 123.5 789.111 128.181 1024.5 C 133.482 1259.62 231.771 1483.05 401.509 1645.83 C 555.957 1795.01 758.627 1884.09 972.965 1897 C 982.113 1897.49 991.276 1897.91 1000.42 1898.41 C 1031.95 1900.14 1063.74 1897.35 1095.25 1895.97 z M 1728.4 506.248 C 1812.73 497.641 1874.03 422.161 1865.16 337.852 C 1856.28 253.543 1780.61 192.483 1696.33 201.628 C 1612.43 210.732 1551.7 285.993 1560.54 369.922 C 1569.37 453.851 1644.44 514.816 1728.4 506.248 z"></path><path fill="#5c7d82" d="M 989.632 528.41 C 990.865 528.235 994.122 528.084 995.49 528.026 C 1112.82 523.121 1232.62 565.279 1319.69 643.759 C 1417.43 730.574 1475.61 853.447 1480.82 984.072 C 1486.55 1111.69 1441.35 1236.35 1355.15 1330.64 C 1273.12 1421.44 1158.44 1476.03 1036.24 1482.44 C 1035.45 1482.56 1034.85 1482.68 1034.01 1482.71 C 915.63 1487.45 802.623 1447.95 713.575 1371.08 C 615.222 1287.05 554.982 1166.86 546.525 1037.77 C 537.586 910.015 579.615 783.916 663.415 687.067 C 732.892 607.25 827.488 553.485 931.615 534.632 C 950.814 531.221 970.206 529.767 989.632 528.41 z M 1038.08 1362.95 C 1064.01 1359.41 1088.44 1355.85 1113.48 1347.8 C 1264.42 1299.29 1365.77 1156.2 1361.99 997.499 C 1357.36 803.467 1198.97 641.579 1002.52 647.664 C 997.983 647.805 993.878 647.789 989.327 648.351 C 964.976 651.016 946.795 653.476 922.922 660.003 C 852.531 679.677 790.061 720.884 744.267 777.848 C 684.473 852.987 656.789 948.708 667.245 1044.16 C 688.335 1232.21 847.579 1373.64 1038.08 1362.95 z"></path></svg></svg> </g></g></g></g> <g fill="#000000" transform="translate(130.2777214050293, 3.323642316071883)"><g transform="scale(1)"><path d="M3.42-16.21L3.93-19.86 9.47-25.59 3.79-25.59 4.39-30.07 10.26-30.07 10.39-31 8.87-32.75 19.59-32.75 19.22-30.07 26.24-30.07 25.64-25.59 15.57-25.59 10.21-19.86 13.07-19.86 16.68-23.38 23.56-23.38 9.1-9.24 2.13-9.24 9.29-16.21 3.42-16.21ZM34.42-31.97L42.27-31.97 38.16-2.77Q37.97-1.43 36.96-0.58 35.94 0.28 34.6 0.28L34.6 0.28 27.72 0.28 31.87-4.71 35.52-30.72 34.42-31.97ZM17.46-15.06L24.9-15.06 18.71-9.52 22.77 0.28 16.49 0.28 14.18-5.45 7.76 0.32 0.23 0.32 17.46-15.06ZM27.9-29.52L33.91-29.52 30.67-6.65 24.67-6.65 27.9-29.52ZM47.03-30.21L63.66-30.21 63.8-31.09 62.32-32.85 72.85-32.85 72.48-30.21 84.77-30.21 84.12-25.82 55.8-25.82 50.58 0.42 42.68 0.42 48.46-28.55 47.03-30.21ZM51.46 0.42L61.12-4.8 54.6-9.15 54.7-10.02 55.25-13.95 81.58-13.95 80.93-9.15 73.13-4.8 81.3 0.42 69.02 0.42 66.61-1.15 63.75 0.42 51.46 0.42ZM73.5-24.95L82.27-24.95 82.09-23.65 83.85-23.65 83.34-20.14 81.58-20.14 80.89-15.29 56.31-15.29 57.01-20.14 55.25-20.14 55.76-23.65 57.51-23.65 57.7-24.95 66.48-24.95 66.29-23.65 73.31-23.65 73.5-24.95ZM65.6-18.8L72.62-18.8 72.8-20.14 65.78-20.14 65.6-18.8ZM70.77-10.02L64.95-10.02 67.63-8.32 70.77-10.02Z" transform="translate(-0.23000000417232513, 32.849998474121094)"></path></g></g></g> <g fill-rule="" class="tp-slogan iconsvg-slogansvg" fill="#5C7D82" transform="translate(5,49.91304397583008)"><rect x="0" height="1" y="6.018401145935059" width="15.543258666992188"></rect> <rect height="1" y="6.018401145935059" width="15.543258666992188" x="189.2744598388672"></rect> <g transform="translate(18.543258666992188,0)"><g transform="scale(1.9200000000000004)"><path d="M1.12-2.10L5.27-2.10L5.50-3.48L0.89-3.48L1.46-7.51L8.26-7.51L8.03-5.56L5.72-5.56L5.84-6.36L3.65-6.36L3.30-4.63L7.91-4.63L7.45-1.52Q7.45-1.36 7.37-1.21Q7.30-1.06 7.16-0.95Q7.03-0.84 6.87-0.78Q6.71-0.72 6.53-0.72L6.53-0.72L0.54-0.72L0.77-2.57L1.12-2.10ZM12.62-7.51L17.34-7.51L18.26-0.72L16.19-0.72L15.95-2.57L13.07-2.57L12.27-0.72L10.31-0.72L12.96-7.18L12.62-7.51ZM15.50-6.36L14.69-6.36L13.54-3.72L15.84-3.72L15.50-6.36ZM24.98-0.72L21.75-0.72L20.48-7.18L20.25-7.51L22.68-7.51L23.59-2.80L25.89-7.51L28.20-7.51L24.98-0.72ZM31.04-7.51L37.50-7.51Q37.67-7.51 37.81-7.45Q37.96-7.39 38.06-7.28Q38.16-7.18 38.20-7.03Q38.23-6.89 38.18-6.71L38.18-6.71L37.38-0.72L30.92-0.72Q30.76-0.72 30.61-0.78Q30.47-0.84 30.37-0.95Q30.26-1.06 30.23-1.21Q30.19-1.36 30.24-1.52L30.24-1.52L31.04-7.51ZM35.88-6.36L33.12-6.36L32.54-1.87L35.20-1.87L35.88-6.36ZM40.74-7.51L48.23-7.51L47.78-4.06Q47.78-3.89 47.70-3.74Q47.62-3.59 47.49-3.48Q47.36-3.37 47.19-3.31Q47.03-3.25 46.85-3.25L46.85-3.25L45.35-3.25L47.78-0.72L45.24-0.72L42.94-3.25L42.59-0.72L40.29-0.72L41.09-7.06L40.74-7.51ZM45.82-6.36L43.29-6.36L43.05-4.40L45.59-4.40L45.82-6.36ZM51.02-0.72L51.02-0.72Q50.85-0.72 50.71-0.78Q50.56-0.84 50.46-0.95Q50.36-1.06 50.32-1.21Q50.29-1.36 50.34-1.52L50.34-1.52L51.14-7.51L58.40-7.51L58.28-6.36L53.22-6.36L52.64-1.87L57.13-1.87L57.70-2.33L57.48-0.72L51.02-0.72ZM61.25-7.51L67.70-7.51Q67.87-7.51 68.02-7.45Q68.16-7.39 68.26-7.28Q68.36-7.18 68.40-7.03Q68.44-6.89 68.39-6.71L68.39-6.71L67.58-0.72L61.13-0.72Q60.96-0.72 60.82-0.78Q60.67-0.84 60.57-0.95Q60.47-1.06 60.43-1.21Q60.40-1.36 60.44-1.52L60.44-1.52L61.25-7.51ZM66.08-6.36L63.32-6.36L62.75-1.87L65.40-1.87L66.08-6.36ZM70.95-7.51L78.68-7.51L77.86-1.52Q77.86-1.18 77.58-0.95Q77.30-0.72 76.95-0.72L76.95-0.72L70.49-0.72L71.30-7.06L70.95-7.51ZM76.37-6.36L73.60-6.36L72.92-1.87L75.68-1.87L76.37-6.36ZM81.33-7.51L87.90-7.51L87.79-6.36L83.98-6.36L83.76-4.87L87.32-4.87L87.21-3.72L83.52-3.72L83.29-1.87L87.32-1.87L87.21-0.72L80.76-0.72L81.68-7.06L81.33-7.51Z" transform="translate(-0.54, 7.5120000000000005)"></path></g></g></g></g><defs v-gra="od"></defs></g></svg>